<svg width="1440" height="1752" viewBox="0 0 1440 1752" fill="none" xmlns="http://www.w3.org/2000/svg">
<g clip-path="url(#clip0_564_1552)">
<g filter="url(#filter0_f_564_1552)">
<path d="M961.838 645.626C916.071 622.817 921.15 561.379 871.024 551.277C784.695 533.88 830.526 698.618 871.024 776.837C949.223 927.874 1351.79 940.769 1306.45 776.837C1287.3 707.609 1259.53 650.916 1189.53 634.875C1138.72 623.23 1111.8 666.687 1059.67 665.813C1020.67 665.158 996.755 663.028 961.838 645.626Z" fill="#02523A"/>
</g>
<g opacity="0.4" filter="url(#filter1_f_564_1552)">
<path d="M311.055 1675.29C257.034 1648.38 263.03 1575.91 203.864 1563.99C101.968 1543.46 156.063 1737.81 203.864 1830.08C296.165 2008.26 771.327 2023.48 717.81 1830.08C695.21 1748.41 662.428 1681.53 579.809 1662.61C519.83 1648.87 488.055 1700.14 426.531 1699.11C380.492 1698.33 352.268 1695.82 311.055 1675.29Z" fill="#5A4AF4"/>
</g>
<g filter="url(#filter2_f_564_1552)">
<ellipse cx="688.26" cy="723.259" rx="200.84" ry="133.281" transform="rotate(-135 688.26 723.259)" fill="#492C66"/>
</g>
<g opacity="0.4" filter="url(#filter3_f_564_1552)">
<ellipse cx="908.74" cy="1666.74" rx="236.953" ry="157.246" transform="rotate(-135 908.74 1666.74)" fill="#1EA5FC"/>
</g>
<g filter="url(#filter4_f_564_1552)">
<ellipse cx="1130.74" cy="-256.257" rx="200.84" ry="133.281" transform="rotate(-135 1130.74 -256.257)" fill="#251E62"/>
</g>
<g filter="url(#filter5_f_564_1552)">
<path d="M263.838 -133.374C218.071 -156.183 223.15 -217.621 173.024 -227.723C86.695 -245.12 132.526 -80.3823 173.024 -2.16267C251.223 148.874 653.791 161.769 608.45 -2.16267C589.303 -71.3915 561.529 -128.084 491.532 -144.125C440.717 -155.77 413.797 -112.313 361.672 -113.187C322.667 -113.842 298.755 -115.972 263.838 -133.374Z" fill="#0C4265"/>
</g>
</g>
<defs>
<filter id="filter0_f_564_1552" x="472" y="200" width="1188" height="1045" filterUnits="userSpaceOnUse" color-interpolation-filters="sRGB">
<feFlood flood-opacity="0" result="BackgroundImageFix"/>
<feBlend mode="normal" in="SourceGraphic" in2="BackgroundImageFix" result="shape"/>
<feGaussianBlur stdDeviation="175" result="effect1_foregroundBlur_564_1552"/>
</filter>
<filter id="filter1_f_564_1552" x="-204" y="1212.48" width="1276" height="1107" filterUnits="userSpaceOnUse" color-interpolation-filters="sRGB">
<feFlood flood-opacity="0" result="BackgroundImageFix"/>
<feBlend mode="normal" in="SourceGraphic" in2="BackgroundImageFix" result="shape"/>
<feGaussianBlur stdDeviation="175" result="effect1_foregroundBlur_564_1552"/>
</filter>
<filter id="filter2_f_564_1552" x="167.8" y="202.799" width="1040.92" height="1040.92" filterUnits="userSpaceOnUse" color-interpolation-filters="sRGB">
<feFlood flood-opacity="0" result="BackgroundImageFix"/>
<feBlend mode="normal" in="SourceGraphic" in2="BackgroundImageFix" result="shape"/>
<feGaussianBlur stdDeviation="175" result="effect1_foregroundBlur_564_1552"/>
</filter>
<filter id="filter3_f_564_1552" x="357.63" y="1115.63" width="1102.22" height="1102.22" filterUnits="userSpaceOnUse" color-interpolation-filters="sRGB">
<feFlood flood-opacity="0" result="BackgroundImageFix"/>
<feBlend mode="normal" in="SourceGraphic" in2="BackgroundImageFix" result="shape"/>
<feGaussianBlur stdDeviation="175" result="effect1_foregroundBlur_564_1552"/>
</filter>
<filter id="filter4_f_564_1552" x="610.283" y="-776.717" width="1040.92" height="1040.92" filterUnits="userSpaceOnUse" color-interpolation-filters="sRGB">
<feFlood flood-opacity="0" result="BackgroundImageFix"/>
<feBlend mode="normal" in="SourceGraphic" in2="BackgroundImageFix" result="shape"/>
<feGaussianBlur stdDeviation="175" result="effect1_foregroundBlur_564_1552"/>
</filter>
<filter id="filter5_f_564_1552" x="-226" y="-579" width="1188" height="1045" filterUnits="userSpaceOnUse" color-interpolation-filters="sRGB">
<feFlood flood-opacity="0" result="BackgroundImageFix"/>
<feBlend mode="normal" in="SourceGraphic" in2="BackgroundImageFix" result="shape"/>
<feGaussianBlur stdDeviation="175" result="effect1_foregroundBlur_564_1552"/>
</filter>
<clipPath id="clip0_564_1552">
<rect width="1440" height="3192" fill="white" transform="translate(0 -720)"/>
</clipPath>
</defs>
</svg>
