<svg width="28" height="28" viewBox="0 0 28 28" fill="none" xmlns="http://www.w3.org/2000/svg">
<g opacity="0.9">
<g opacity="0.9">
<path opacity="0.9" d="M14.2364 27.0805C6.82563 27.0805 0.816895 21.0687 0.816895 13.6542C0.816895 6.23977 6.82563 0.228027 14.2364 0.228027C21.6472 0.228027 27.6559 6.23977 27.6559 13.6542C27.6559 21.0687 21.6472 27.0805 14.2364 27.0805ZM14.2364 2.13174C7.92723 2.13174 2.81981 7.24172 2.81981 13.554C2.81981 19.8664 7.92723 25.0765 14.2364 25.0765C20.5456 25.0765 25.653 19.9666 25.653 13.6542C25.653 7.34192 20.5456 2.13174 14.2364 2.13174Z" fill="#080809"/>
</g>
<path opacity="0.9" d="M20.4459 12.6523H15.2383V7.34192H13.2354V12.6523H8.02783V14.6562H13.2354V19.8664H15.2383V14.6562H20.4459V12.6523Z" fill="#080809"/>
</g>
</svg>
