<svg width="114" height="113" viewBox="0 0 114 113" fill="none" xmlns="http://www.w3.org/2000/svg">
<path d="M57.1924 111.664C87.6122 111.664 112.272 86.9911 112.272 56.556C112.272 26.1209 87.6122 1.44836 57.1924 1.44836C26.7725 1.44836 2.1123 26.1209 2.1123 56.556C2.1123 86.9911 26.7725 111.664 57.1924 111.664Z" fill="#0F0F11"/>
<path d="M57.1924 62.6678C60.5662 62.6678 63.3013 59.9314 63.3013 56.5559C63.3013 53.1804 60.5662 50.444 57.1924 50.444C53.8185 50.444 51.0835 53.1804 51.0835 56.5559C51.0835 59.9314 53.8185 62.6678 57.1924 62.6678Z" fill="#ACADAD"/>
<rect x="49" y="16.0001" width="16" height="16" fill="#A0A0A0"/>
<rect x="49" y="80.0001" width="16" height="16" fill="#ACADAD"/>
<rect x="18.359" y="42.9283" width="16" height="16" transform="rotate(-60 18.359 42.9283)" fill="#ACADAD"/>
<rect x="73.7846" y="74.9283" width="16" height="16" transform="rotate(-60 73.7846 74.9283)" fill="#ACADAD"/>
<rect x="26.359" y="82.9283" width="16" height="16" transform="rotate(-120 26.359 82.9283)" fill="#ACADAD"/>
<rect x="81.7846" y="50.9283" width="16" height="16" transform="rotate(-120 81.7846 50.9283)" fill="#ACADAD"/>
<circle cx="57" cy="56.0001" r="40" stroke="#ACADAD" stroke-width="6"/>
<path d="M57.192 0.24585C26.0467 0.24585 0.910156 25.4952 0.910156 56.5558C0.910156 87.6165 26.1468 112.866 57.192 112.866C88.2371 112.866 113.474 87.6165 113.474 56.5558C113.474 25.4952 88.3372 0.24585 57.192 0.24585ZM57.192 107.956C28.8508 107.956 5.91743 84.9112 5.91743 56.656C5.91743 28.4008 28.9509 5.35583 57.192 5.35583C85.433 5.35583 108.467 28.4008 108.467 56.656C108.467 84.9112 85.5332 107.956 57.192 107.956Z" fill="#A4A4A4"/>
</svg>
